<svg width="114" height="42" viewBox="0 0 114 42" fill="none" xmlns="http://www.w3.org/2000/svg">
<g clip-path="url(#clip0_1_267)">
<path d="M56.2996 31.4972H59.7996L61.0996 27.6972H67.9996L69.2996 31.4972H72.8996L66.6996 13.5972H62.4996L56.2996 31.4972ZM61.9996 24.7972L64.4996 17.2972L66.9996 24.7972H61.9996Z" fill="#232E35"/>
<path d="M74.4995 31.4971H77.5995V13.2971H74.4995V31.4971Z" fill="#232E35"/>
<path d="M86.7995 31.797C88.0995 31.797 89.2995 31.497 90.2995 30.897C91.2995 30.297 91.9995 29.497 92.3995 28.597L89.8995 27.397C89.5995 27.897 89.1995 28.297 88.6995 28.597C88.1995 28.897 87.5995 29.097 86.8995 29.097C85.9995 29.097 85.1995 28.797 84.4995 28.197C83.7995 27.597 83.4995 26.897 83.3995 25.897H92.7995C92.8995 25.697 92.8995 25.497 92.8995 25.297C92.8995 25.097 92.8995 24.797 92.8995 24.597C92.8995 23.397 92.6995 22.397 92.1995 21.397C91.6995 20.397 90.9995 19.697 89.9995 19.097C89.0995 18.497 87.8995 18.197 86.4995 18.197C85.2995 18.197 84.1995 18.497 83.1995 19.097C82.1995 19.697 81.3995 20.497 80.8995 21.497C80.2995 22.497 80.0995 23.697 80.0995 24.997C80.0995 26.297 80.3995 27.397 80.8995 28.497C81.4995 29.497 82.1995 30.397 83.2995 30.997C84.2995 31.497 85.3995 31.797 86.7995 31.797ZM86.4995 20.697C87.2995 20.697 87.9995 20.997 88.5995 21.497C89.1995 21.997 89.4995 22.597 89.4995 23.397H83.3995C83.5995 22.497 83.8995 21.897 84.4995 21.397C85.0995 20.997 85.7995 20.697 86.4995 20.697Z" fill="#232E35"/>
<path d="M93.8995 31.497H97.5995L100.3 27.397L103 31.497H106.7L102.2 24.897L106.8 18.397H103.1L100.4 22.497L97.5995 18.397H93.8995L98.4995 24.897L93.8995 31.497Z" fill="#232E35"/>
<path d="M109.9 31.4972H113.1V28.0972H109.9V31.4972Z" fill="#232E35"/>
<path d="M19.9995 1.49707C8.99951 1.49707 -0.000488281 10.4971 -0.000488281 21.4971C-0.000488281 32.4971 8.99951 41.4971 19.9995 41.4971C30.9995 41.4971 39.9995 32.4971 39.9995 21.4971C39.9995 10.4971 30.9995 1.49707 19.9995 1.49707ZM11.7995 28.9971C9.59951 28.9971 7.79951 27.1971 7.79951 24.9971C7.79951 22.7971 9.59951 20.9971 11.7995 20.9971C13.9995 20.9971 15.7995 22.7971 15.7995 24.9971C15.7995 27.1971 13.9995 28.9971 11.7995 28.9971ZM28.4995 27.8971C26.6995 28.9971 24.2995 28.2971 23.1995 26.4971L17.5995 16.7971C16.4995 14.9971 17.1995 12.5971 18.9995 11.4971C20.7995 10.3971 23.1995 11.0971 24.2995 12.8971L29.8995 22.5971C30.9995 24.4971 30.2995 26.8971 28.4995 27.8971Z" fill="#232E35"/>
</g>
<defs>
<clipPath id="clip0_1_267">
<rect width="114" height="41" fill="white" transform="translate(-0.000488281 0.99707)"/>
</clipPath>
</defs>
</svg>
